<?xml version="1.0" standalone="no"?>
<!DOCTYPE svg PUBLIC "-//W3C//DTD SVG 20010904//EN"
 "http://www.w3.org/TR/2001/REC-SVG-20010904/DTD/svg10.dtd">
<svg version="1.0" xmlns="http://www.w3.org/2000/svg"
 width="1024.000000pt" height="1024.000000pt" viewBox="0 0 1024.000000 1024.000000"
 preserveAspectRatio="xMidYMid meet">
<metadata>
Created by potrace 1.14, written by Peter Selinger 2001-2017
</metadata>
<g transform="translate(0.000000,1024.000000) scale(0.100000,-0.100000)"
fill="#000000" stroke="none">
<path d="M4235 8481 c-702 -8 -716 -9 -920 -67 -192 -55 -333 -121 -515 -239
-336 -220 -598 -583 -703 -975 -66 -246 -62 -118 -62 -1800 l0 -1525 27 -126
c63 -291 175 -523 367 -761 268 -333 682 -551 1133 -598 143 -15 2195 -23
2733 -11 484 10 532 17 785 100 591 196 992 661 1123 1305 l22 111 0 1505 0
1505 -24 120 c-83 418 -267 753 -561 1018 -242 219 -595 375 -953 421 -138 19
-1450 27 -2452 17z m2095 -211 c368 -10 454 -20 630 -79 352 -118 652 -353
837 -657 63 -104 145 -308 185 -463 l30 -116 10 -590 c5 -324 7 -1008 3 -1520
l-6 -929 -29 -126 c-77 -336 -208 -576 -429 -789 -200 -192 -551 -362 -826
-400 -106 -15 -2852 -25 -3050 -12 -178 12 -312 39 -475 96 -338 118 -635 375
-804 697 -52 98 -128 327 -153 459 -17 87 -18 198 -18 1554 0 1643 -3 1569 76
1810 93 286 242 513 458 696 168 144 314 229 491 289 210 72 221 73 790 80
807 9 1912 9 2280 0z"/>
<path d="M4955 7943 c-262 -31 -506 -87 -690 -158 -453 -175 -909 -522 -1173
-894 -145 -203 -281 -455 -355 -656 -97 -265 -137 -502 -137 -816 0 -387 69
-688 246 -1067 56 -121 97 -188 213 -350 207 -289 358 -444 611 -624 538 -383
1162 -533 1822 -437 257 37 502 113 746 234 383 188 677 431 924 763 191 255
296 452 383 717 91 275 119 486 113 845 -5 277 -23 407 -85 610 -72 239 -213
535 -345 728 -282 410 -760 778 -1238 955 -172 64 -429 124 -604 141 -144 14
-352 19 -431 9z m300 -207 c66 -3 167 -13 225 -21 130 -19 404 -94 510 -140
704 -301 1192 -840 1395 -1538 71 -241 102 -516 85 -736 -39 -484 -184 -882
-451 -1232 -83 -110 -273 -312 -369 -394 -121 -104 -263 -200 -451 -308 -57
-33 -241 -112 -334 -144 -329 -113 -746 -148 -1105 -92 -200 31 -450 110 -635
199 -389 189 -702 465 -950 840 -174 263 -289 549 -352 880 -26 135 -26 578 0
727 47 276 114 470 245 714 226 419 499 700 929 956 310 184 589 268 965 292
62 4 127 6 143 4 17 -1 84 -5 150 -7z"/>
<path d="M4790 7499 c-80 -9 -238 -47 -318 -77 -104 -40 -240 -131 -343 -229
-161 -154 -249 -290 -317 -483 -65 -187 -63 -147 -59 -1295 3 -1153 -1 -1072
72 -1270 113 -304 306 -523 587 -664 213 -107 538 -139 768 -76 402 110 703
415 807 820 l26 100 7 595 c13 1046 12 1513 -5 1615 -36 224 -161 462 -329
631 -69 68 -221 177 -311 221 -207 103 -373 135 -585 112z m309 -213 c143 -31
290 -103 403 -199 130 -109 253 -318 300 -507 22 -93 23 -107 23 -560 l0 -465
-943 -3 -944 -2 4 467 c4 449 5 472 28 563 47 194 154 368 306 501 126 110
246 167 442 210 102 22 262 20 381 -5z m301 -1939 c0 -5 16 -6 38 -3 20 4 32
3 26 -1 -8 -6 -4 -14 12 -26 13 -10 24 -13 24 -7 0 5 -4 10 -10 10 -5 0 -10 7
-10 15 0 13 3 13 20 3 12 -7 19 -20 17 -29 -2 -9 2 -16 9 -16 9 0 11 10 8 31
-4 23 -3 27 4 16 6 -8 8 -18 6 -22 -3 -4 -1 -8 5 -8 6 0 7 -7 4 -17 -4 -11 -3
-14 6 -9 6 4 9 16 6 27 -4 11 -2 19 4 19 6 0 11 -4 11 -10 0 -5 4 -10 10 -10
5 0 7 8 3 18 -5 13 -3 14 7 6 6 -7 13 -23 13 -37 2 -24 11 -28 33 -14 13 8 40
-20 30 -30 -4 -4 -11 -1 -16 7 -6 8 -10 12 -11 8 -1 -5 -2 -11 -3 -15 -1 -5
-5 -15 -10 -23 -7 -12 -6 -13 5 -2 12 11 49 17 49 8 0 -2 3 -11 6 -20 3 -9 1
-16 -5 -16 -6 0 -11 8 -11 18 0 14 -2 14 -9 3 -9 -14 6 -41 20 -38 4 1 8 -2 9
-8 3 -17 -17 -17 -34 0 -9 9 -16 12 -16 6 0 -6 9 -15 21 -22 17 -9 25 -7 45
12 13 12 24 27 24 33 0 6 -5 5 -12 -2 -7 -7 -16 -12 -22 -12 -6 0 -5 5 2 12 7
7 8 17 1 30 -5 10 -8 18 -7 19 2 0 12 2 22 4 10 2 22 9 26 15 4 7 8 1 8 -14 0
-14 -5 -26 -10 -26 -5 0 -6 5 -3 10 3 6 2 10 -4 10 -5 0 -13 -5 -17 -11 -9
-15 15 -29 35 -21 8 3 4 -7 -11 -23 -14 -15 -24 -34 -21 -41 7 -19 25 -18 21
0 -2 8 1 15 7 15 5 0 12 7 15 17 4 11 9 14 13 7 4 -6 1 -18 -7 -26 -8 -8 -12
-17 -9 -21 4 -3 1 -6 -6 -6 -7 0 -9 -5 -5 -11 3 -6 15 -8 27 -5 15 4 17 2 9
-6 -9 -9 -21 -7 -47 5 -38 18 -71 23 -42 6 9 -5 17 -16 17 -24 0 -9 -6 -12
-17 -9 -11 4 -14 2 -8 -3 16 -13 17 -34 3 -52 -12 -14 -11 -15 5 -2 10 8 16
19 14 25 -4 13 17 36 34 36 7 0 5 -8 -7 -21 -15 -17 -16 -23 -6 -40 7 -11 10
-24 7 -29 -4 -6 0 -10 9 -10 8 0 16 6 19 13 2 6 8 8 13 4 5 -4 2 -12 -6 -18
-13 -8 -13 -11 3 -23 9 -7 17 -17 17 -21 0 -5 -8 -2 -17 7 -10 8 -31 19 -46
26 -26 11 -27 11 -17 -8 6 -11 17 -20 24 -20 8 0 19 -7 26 -15 9 -10 9 -15 1
-15 -6 0 -11 5 -11 10 0 6 -8 5 -20 -2 -11 -7 -20 -18 -20 -25 0 -7 -4 -13 -8
-13 -13 0 -43 36 -37 42 3 3 -3 8 -14 11 -23 6 -18 -18 6 -27 11 -5 12 -10 5
-19 -9 -10 -3 -12 24 -12 20 1 40 8 45 16 8 12 11 11 20 -3 5 -10 18 -18 27
-18 15 0 15 -2 2 -10 -10 -6 -11 -13 -5 -17 6 -5 11 -21 12 -37 1 -18 -2 -24
-7 -16 -4 7 -17 10 -28 7 -12 -2 -22 -1 -24 5 -2 5 -13 -2 -25 -16 -17 -20
-19 -27 -9 -35 10 -8 21 -7 42 4 l29 15 -27 0 c-16 0 -28 -5 -28 -12 0 -6 -3
-8 -6 -5 -4 4 -1 13 5 21 10 11 19 12 42 4 l30 -10 -33 -23 c-30 -21 -35 -22
-55 -9 -20 12 -22 12 -17 -1 4 -8 13 -15 22 -15 13 0 10 -6 -11 -25 -30 -29
-34 -37 -12 -29 10 4 15 0 15 -12 0 -15 2 -16 13 -5 10 11 10 14 0 18 -20 7
-15 23 5 20 9 -2 27 -9 39 -17 20 -13 20 -15 5 -27 -15 -12 -16 -14 -1 -25 14
-12 14 -15 -4 -33 -19 -19 -20 -19 -13 -1 3 10 1 25 -5 33 -9 10 -9 17 -1 25
18 18 14 32 -4 17 -11 -9 -14 -22 -10 -43 5 -30 5 -31 -8 -7 -8 15 -16 20 -20
12 -7 -11 22 -60 37 -61 4 0 7 -8 7 -17 -1 -14 -7 -11 -29 13 -20 22 -33 29
-42 23 -13 -8 -6 -13 14 -10 4 0 7 -5 7 -12 0 -8 16 -27 35 -42 32 -27 33 -30
18 -47 -16 -18 -9 -24 20 -19 5 1 6 -3 2 -9 -4 -7 -12 -7 -24 0 -14 7 -21 4
-31 -15 -7 -14 -19 -25 -27 -25 -19 0 -16 -13 6 -30 11 -7 17 -18 14 -23 -3
-6 -1 -7 5 -3 7 4 12 14 12 22 0 19 19 18 42 -3 17 -15 18 -15 18 0 0 10 5 17
10 17 14 0 13 -13 -2 -28 -10 -10 -10 -15 2 -22 8 -5 11 -12 7 -17 -4 -4 -19
6 -34 22 -14 17 -27 26 -29 20 -16 -39 -24 -40 -54 -6 -17 19 -34 30 -38 26
-4 -4 -1 -10 6 -12 19 -7 14 -29 -10 -47 -20 -14 -20 -15 -3 -9 11 4 23 10 26
15 9 14 39 -2 39 -21 0 -9 -5 -22 -12 -29 -8 -8 -8 -15 0 -24 7 -9 7 -19 2
-28 -6 -8 -10 -21 -10 -29 0 -8 12 8 26 35 31 59 50 80 39 44 -4 -14 -12 -26
-16 -28 -13 -5 -11 -30 3 -34 7 -3 11 -18 10 -37 -2 -21 1 -30 8 -26 6 4 9 13
6 20 -2 7 1 16 9 19 18 6 -2 -52 -47 -141 -33 -66 -55 -83 -44 -35 5 23 5 24
-5 9 -6 -10 -8 -29 -5 -41 4 -17 -4 -36 -30 -69 -20 -26 -41 -44 -47 -40 -5 3
-7 2 -4 -4 10 -16 -157 -167 -194 -175 -8 -2 -16 -6 -19 -9 -16 -18 -146 -80
-209 -99 -60 -17 -76 -19 -82 -8 -7 10 -9 9 -9 -4 0 -20 -26 -25 -32 -7 -3 8
-10 6 -21 -5 -15 -15 -17 -15 -17 -2 0 19 -17 21 -22 4 -3 -7 -7 -2 -10 10 -4
15 -2 22 7 22 8 0 17 6 21 13 4 6 4 9 -1 5 -4 -4 -15 -2 -23 5 -13 10 -14 9
-7 -2 6 -11 4 -13 -9 -8 -14 6 -15 3 -6 -14 6 -11 9 -25 7 -32 -3 -7 -9 -1
-15 13 -10 24 -11 24 -11 3 -1 -16 -6 -21 -21 -18 -11 2 -22 -1 -25 -6 -4 -5
-11 -7 -16 -3 -5 3 -6 11 -2 17 4 7 0 6 -10 -2 -36 -29 -297 39 -417 109 -218
128 -377 323 -453 555 -42 127 -47 193 -47 665 l0 445 730 1 c445 0 730 -3
730 -9z m400 -22 c0 -24 -25 -41 -35 -24 -4 5 -1 8 6 7 7 -2 14 6 16 17 3 11
1 16 -4 10 -7 -9 -18 -11 -39 -6 -15 3 7 16 30 17 21 2 26 -3 26 -21z m17 -37
c-2 -13 -4 -3 -4 22 0 25 2 35 4 23 2 -13 2 -33 0 -45z m-119 27 c-3 -3 -9 2
-12 12 -6 14 -5 15 5 6 7 -7 10 -15 7 -18z m-58 -6 c0 -5 -4 -9 -10 -9 -5 0
-10 7 -10 16 0 8 5 12 10 9 6 -3 10 -10 10 -16z m27 -1 c-3 -8 -6 -5 -6 6 -1
11 2 17 5 13 3 -3 4 -12 1 -19z m68 -26 c-17 -15 -18 -15 -6 0 7 9 9 23 5 30
-6 10 -4 11 7 0 11 -10 10 -15 -6 -30z m-32 -16 c-3 -4 -9 -2 -14 5 -13 22
-11 31 5 17 8 -7 12 -17 9 -22z m89 -15 c8 12 9 12 6 0 -6 -22 -28 -25 -27 -4
0 12 2 14 6 4 5 -11 7 -11 15 0z m8 -181 c0 -5 -4 -10 -10 -10 -5 0 -10 5 -10
10 0 6 5 10 10 10 6 0 10 -4 10 -10z m-26 -26 c3 -8 -1 -14 -10 -14 -8 0 -12
5 -9 10 3 6 1 10 -4 10 -6 0 -11 4 -11 10 0 14 27 1 34 -16z m-14 -313 c0 -5
-9 -11 -21 -14 -16 -4 -18 -3 -8 9 13 16 29 19 29 5z m17 -23 c-3 -8 -6 -5 -6
6 -1 11 2 17 5 13 3 -3 4 -12 1 -19z m-2 -166 c1 -11 -2 -19 -7 -16 -5 4 -7
12 -4 19 3 8 1 16 -5 19 -5 2 -4 3 2 2 7 -1 13 -12 14 -24z m-4 -134 c-10 -11
-11 -9 -5 6 6 15 4 17 -6 11 -9 -6 -11 -4 -5 4 5 9 10 10 18 2 8 -8 7 -14 -2
-23z m-60 -11 c-8 -8 -11 -7 -11 4 0 20 13 34 18 19 3 -7 -1 -17 -7 -23z m83
-94 c8 -18 -5 -83 -15 -77 -5 3 -7 10 -4 15 4 5 1 9 -5 9 -7 0 -10 -7 -7 -15
4 -8 2 -17 -2 -20 -16 -9 -20 38 -7 64 12 22 12 28 0 38 -8 8 -15 9 -19 3 -3
-6 -11 -10 -17 -10 -6 0 -3 9 7 20 16 18 18 18 41 2 13 -9 25 -22 28 -29z
m-80 -18 c-4 -8 -10 -12 -15 -9 -11 6 -2 24 11 24 5 0 7 -7 4 -15z"/>
<path d="M4530 6978 c-71 -41 -227 -198 -262 -263 -41 -77 -71 -198 -72 -292
-1 -77 1 -84 26 -109 39 -40 114 -45 153 -12 26 23 29 32 36 124 4 54 14 119
23 143 29 80 101 158 204 221 87 53 106 122 51 185 -41 46 -83 47 -159 3z"/>
<path d="M5571 5279 c-11 -19 -11 -21 2 -16 9 3 18 3 20 -1 2 -4 3 -2 1 4 -1
6 3 17 9 23 8 8 7 11 -4 11 -8 0 -20 -10 -28 -21z"/>
<path d="M5493 5275 c0 -8 4 -12 9 -9 5 3 6 10 3 15 -9 13 -12 11 -12 -6z"/>
<path d="M5535 5259 c6 -30 15 -37 15 -11 0 11 -4 23 -9 27 -6 3 -8 -4 -6 -16z"/>
<path d="M5476 5247 c3 -10 9 -15 12 -12 3 3 0 11 -7 18 -10 9 -11 8 -5 -6z"/>
<path d="M5616 5243 c-6 -14 -5 -15 5 -6 7 7 10 15 7 18 -3 3 -9 -2 -12 -12z"/>
<path d="M5567 5243 c-4 -3 -7 -13 -7 -22 1 -13 3 -13 11 2 11 19 8 33 -4 20z"/>
<path d="M5647 5053 c-4 -3 -7 -11 -7 -17 0 -6 5 -5 12 2 6 6 9 14 7 17 -3 3
-9 2 -12 -2z"/>
<path d="M5664 4968 c-4 -7 -3 -10 1 -5 5 4 16 0 26 -9 10 -9 24 -14 31 -11 8
4 5 8 -9 12 -13 4 -20 11 -17 16 3 5 -2 9 -10 9 -8 0 -18 -6 -22 -12z"/>
<path d="M5743 4882 c-10 -6 -9 -13 3 -30 18 -25 34 -29 34 -7 0 8 -7 15 -15
15 -9 0 -12 6 -9 15 7 17 4 18 -13 7z"/>
<path d="M5695 4870 c3 -5 8 -10 11 -10 2 0 4 5 4 10 0 6 -5 10 -11 10 -5 0
-7 -4 -4 -10z"/>
<path d="M5676 4847 c3 -10 9 -15 12 -12 3 3 0 11 -7 18 -10 9 -11 8 -5 -6z"/>
<path d="M5702 4832 c-13 -13 -22 -26 -19 -28 2 -2 14 7 27 21 13 14 22 26 19
28 -2 2 -14 -8 -27 -21z"/>
<path d="M5665 4730 c-3 -5 -1 -10 4 -10 6 0 11 5 11 10 0 6 -2 10 -4 10 -3 0
-8 -4 -11 -10z"/>
<path d="M5640 4681 c0 -15 38 -52 44 -43 2 4 -6 18 -20 31 -13 13 -24 18 -24
12z"/>
<path d="M5630 4639 c0 -5 5 -7 10 -4 6 3 10 8 10 11 0 2 -4 4 -10 4 -5 0 -10
-5 -10 -11z"/>
<path d="M5623 4613 c4 -3 -1 -12 -11 -20 -15 -13 -15 -13 6 -3 19 9 23 30 5
30 -4 0 -3 -3 0 -7z"/>
<path d="M4263 4589 c-46 -13 -76 -55 -67 -93 21 -100 132 -243 201 -261 33
-8 122 32 123 55 0 17 -11 39 -89 177 -72 127 -94 143 -168 122z"/>
<path d="M5626 4571 c-4 -5 1 -8 9 -7 21 3 31 16 12 16 -9 0 -18 -4 -21 -9z"/>
<path d="M5660 4535 c-11 -13 -10 -14 4 -9 12 4 16 0 16 -16 0 -14 4 -19 13
-14 7 5 6 1 -3 -10 -13 -17 -13 -18 5 -14 11 2 19 10 18 16 -2 7 1 11 6 10 5
-2 8 2 8 7 -1 6 -10 9 -20 8 -12 -2 -17 3 -15 14 4 22 -16 27 -32 8z"/>
<path d="M5645 4490 c-3 -5 1 -10 10 -10 9 0 13 5 10 10 -3 6 -8 10 -10 10 -2
0 -7 -4 -10 -10z"/>
<path d="M5610 4477 c0 -5 6 -15 14 -23 8 -7 16 -19 19 -26 2 -7 8 -10 12 -6
4 4 -5 19 -19 35 -14 15 -26 24 -26 20z"/>
<path d="M5550 4415 c-7 -8 -9 -15 -6 -15 4 0 14 7 22 15 9 8 11 15 6 15 -5 0
-15 -7 -22 -15z"/>
<path d="M5610 4410 c0 -5 5 -10 10 -10 6 0 10 5 10 10 0 6 -4 10 -10 10 -5 0
-10 -4 -10 -10z"/>
<path d="M5520 4372 c0 -6 5 -12 12 -14 6 -2 8 -10 4 -17 -6 -9 -11 -9 -23 1
-14 12 -15 11 -3 -8 12 -20 13 -20 41 9 30 30 40 48 14 27 -12 -10 -18 -10
-30 0 -9 8 -15 8 -15 2z"/>
<path d="M5458 4350 c-14 -13 -15 -17 -3 -17 8 0 17 7 20 15 8 21 3 22 -17 2z"/>
<path d="M5615 4359 c-11 -16 -1 -19 13 -3 7 8 8 14 3 14 -5 0 -13 -5 -16 -11z"/>
<path d="M5480 4319 c0 -5 5 -7 10 -4 6 3 10 8 10 11 0 2 -4 4 -10 4 -5 0 -10
-5 -10 -11z"/>
<path d="M5586 4321 c-4 -6 -14 -7 -23 -4 -15 6 -16 5 -3 -9 12 -13 16 -13 28
-1 8 8 12 16 9 19 -3 3 -8 1 -11 -5z"/>
<path d="M5665 4319 c-4 -6 -5 -12 -2 -15 2 -3 7 2 10 11 7 17 1 20 -8 4z"/>
<path d="M5634 4303 c3 -6 2 -14 -4 -18 -5 -3 -10 -11 -10 -18 0 -6 7 -4 17 6
14 14 15 19 4 29 -9 9 -12 9 -7 1z"/>
<path d="M5535 4279 c-4 -12 -2 -26 5 -33 8 -8 9 -6 4 8 -4 11 -2 21 6 26 8 5
9 10 2 14 -6 3 -14 -3 -17 -15z"/>
<path d="M5496 4263 c-6 -14 -5 -15 5 -6 7 7 10 15 7 18 -3 3 -9 -2 -12 -12z"/>
<path d="M5563 4267 c-3 -6 -1 -7 5 -3 6 3 15 -2 21 -11 9 -16 10 -16 8 3 -1
21 -23 28 -34 11z"/>
<path d="M5660 4250 c0 -5 5 -10 10 -10 6 0 10 5 10 10 0 6 -4 10 -10 10 -5 0
-10 -4 -10 -10z"/>
<path d="M5630 4245 c0 -5 5 -17 10 -25 5 -8 10 -10 10 -5 0 6 -5 17 -10 25
-5 8 -10 11 -10 5z"/>
<path d="M5510 4230 c0 -5 5 -10 10 -10 6 0 10 5 10 10 0 6 -4 10 -10 10 -5 0
-10 -4 -10 -10z"/>
<path d="M5598 4211 c-19 -19 -21 -61 -2 -54 7 3 10 11 7 19 -3 8 0 21 7 29
18 22 8 26 -12 6z"/>
<path d="M5478 4209 c-10 -5 -18 -15 -18 -20 0 -6 7 -3 16 5 14 14 17 14 30 1
23 -22 30 -18 9 5 -10 11 -19 20 -19 20 -1 0 -9 -5 -18 -11z"/>
<path d="M5710 4211 c0 -6 5 -13 10 -16 6 -3 10 1 10 9 0 9 -4 16 -10 16 -5 0
-10 -4 -10 -9z"/>
<path d="M5433 4204 c3 -6 1 -16 -4 -24 -8 -13 -10 -13 -20 0 -9 13 -10 12 -5
-3 3 -10 6 -24 6 -30 0 -6 7 -2 15 9 11 15 15 16 16 4 1 -8 1 -18 0 -22 0 -5
5 -7 12 -5 6 1 11 -4 10 -10 -5 -23 5 -14 21 19 20 39 20 44 1 28 -19 -15 -49
-5 -41 15 3 8 0 17 -6 21 -6 4 -8 3 -5 -2z"/>
<path d="M5617 4194 c-3 -5 3 -20 14 -33 22 -27 25 -17 5 18 -7 13 -16 20 -19
15z"/>
<path d="M5656 4192 c-2 -4 -1 -14 5 -22 7 -12 9 -10 9 8 0 23 -5 28 -14 14z"/>
<path d="M5693 4184 c3 -4 0 -13 -8 -21 -8 -8 -15 -20 -15 -26 0 -7 4 -6 10 3
8 12 12 12 18 2 6 -8 9 -2 9 18 0 16 -5 30 -10 30 -6 0 -8 -3 -4 -6z"/>
<path d="M5510 4157 c-8 -7 -16 -20 -18 -29 -4 -27 7 -21 18 8 8 19 16 25 30
21 11 -3 22 -2 24 2 8 12 -38 10 -54 -2z"/>
<path d="M5382 4140 c0 -14 2 -19 5 -12 2 6 2 18 0 25 -3 6 -5 1 -5 -13z"/>
<path d="M5600 4134 c0 -8 5 -12 10 -9 6 3 10 10 10 16 0 5 -4 9 -10 9 -5 0
-10 -7 -10 -16z"/>
<path d="M5400 4121 c0 -5 7 -15 17 -22 15 -13 15 -12 4 9 -12 23 -21 28 -21
13z"/>
<path d="M5510 4115 c-10 -12 -10 -18 0 -30 12 -15 3 -37 -25 -57 -9 -7 7 -12
28 -9 12 2 8 -9 -13 -31 -21 -23 -26 -38 -11 -38 5 0 11 9 14 20 3 11 11 20
17 20 9 0 9 -5 -1 -17 -13 -16 -12 -17 2 -5 13 10 15 20 9 49 -6 26 -5 45 6
64 13 25 13 28 -1 23 -11 -5 -13 -2 -9 10 8 20 0 21 -16 1z"/>
<path d="M5380 4096 c0 -2 7 -7 16 -10 8 -3 12 -2 9 4 -6 10 -25 14 -25 6z"/>
<path d="M5477 4094 c7 -3 9 -13 6 -22 -5 -13 -3 -14 7 -5 14 13 5 33 -13 32
-9 0 -9 -2 0 -5z"/>
<path d="M5594 4082 c1 -17 19 -17 24 0 3 10 1 10 -6 -1 -9 -12 -11 -12 -14 0
-3 9 -5 10 -4 1z"/>
<path d="M5350 4071 c-5 -11 -17 -26 -25 -34 -13 -13 -13 -16 0 -21 8 -3 14
-2 13 2 -1 4 6 22 15 40 10 17 15 32 13 32 -3 0 -10 -9 -16 -19z"/>
<path d="M5546 4069 c-12 -18 -12 -26 1 -65 8 -25 16 -44 18 -42 1 2 8 14 15
28 12 22 12 24 -2 12 -13 -10 -17 -10 -22 3 -3 9 0 15 8 15 19 0 27 23 14 41
-8 11 -9 11 -5 -3 3 -9 -1 -19 -9 -22 -15 -6 -15 18 -1 42 14 21 -1 13 -17 -9z"/>
<path d="M5440 4069 c0 -5 5 -7 10 -4 6 3 10 8 10 11 0 2 -4 4 -10 4 -5 0 -10
-5 -10 -11z"/>
<path d="M5393 4045 c-3 -9 -3 -19 1 -22 3 -4 6 1 6 10 0 10 5 14 15 11 8 -4
15 -1 15 5 0 17 -30 13 -37 -4z"/>
<path d="M5641 4044 c0 -11 3 -14 6 -6 3 7 2 16 -1 19 -3 4 -6 -2 -5 -13z"/>
<path d="M5438 4031 c-20 -20 -24 -41 -7 -41 6 0 9 6 6 14 -3 8 2 16 14 19 10
3 19 10 19 16 0 16 -12 13 -32 -8z"/>
<path d="M5256 4017 c3 -10 9 -15 12 -12 3 3 0 11 -7 18 -10 9 -11 8 -5 -6z"/>
<path d="M5350 4005 c-7 -8 -9 -15 -6 -15 4 0 14 7 22 15 9 8 11 15 6 15 -5 0
-15 -7 -22 -15z"/>
<path d="M5600 4010 c0 -5 5 -10 10 -10 6 0 10 5 10 10 0 6 -4 10 -10 10 -5 0
-10 -4 -10 -10z"/>
<path d="M5471 3994 c0 -11 3 -14 6 -6 3 7 2 16 -1 19 -3 4 -6 -2 -5 -13z"/>
<path d="M5281 3991 c-8 -6 -9 -11 -3 -15 6 -3 14 -1 17 5 9 14 2 20 -14 10z"/>
<path d="M5370 3991 c0 -6 4 -13 10 -16 6 -3 7 1 4 9 -7 18 -14 21 -14 7z"/>
<path d="M5240 3978 c0 -9 -8 -18 -17 -20 -10 -2 -13 -6 -8 -10 17 -10 45 16
34 33 -7 12 -9 11 -9 -3z"/>
<path d="M5308 3974 c-2 -11 -12 -19 -22 -19 -11 0 -20 -6 -22 -13 -1 -7 0 -8
3 -2 2 5 15 7 27 4 25 -6 45 21 27 39 -6 6 -10 2 -13 -9z"/>
<path d="M5403 3978 c2 -7 0 -20 -4 -30 -7 -13 -5 -15 10 -11 35 9 31 -15 -7
-48 -30 -27 -38 -30 -40 -16 -3 14 -32 26 -32 13 0 -8 31 -36 41 -36 12 0 99
82 99 93 0 5 -7 4 -15 -3 -12 -10 -15 -10 -15 3 0 8 6 17 13 20 6 2 9 8 5 12
-4 4 -14 0 -23 -9 -21 -21 -24 -20 -18 4 3 12 0 20 -7 20 -6 0 -10 -6 -7 -12z"/>
<path d="M5347 3973 c-11 -10 -8 -20 7 -26 10 -4 12 0 9 14 -6 21 -7 22 -16
12z"/>
<path d="M5529 3957 c-9 -7 -14 -18 -11 -26 3 -10 0 -12 -11 -8 -19 7 -143
-105 -133 -121 3 -5 -1 -15 -9 -22 -13 -11 -14 -10 -9 6 4 11 -2 7 -17 -11
-13 -16 -25 -44 -26 -63 -2 -41 7 -37 12 4 1 16 8 28 15 26 6 -1 9 2 6 7 -9
14 20 21 34 8 10 -9 11 -7 6 9 -4 14 -1 26 10 35 15 12 16 11 9 -11 -7 -24 -7
-24 8 -5 9 11 11 22 6 23 -6 3 -5 11 3 20 7 10 0 6 -15 -7 -32 -29 -36 -17 -6
15 12 12 27 20 34 18 7 -3 16 4 20 16 5 15 12 19 28 16 12 -3 16 -3 10 0 -15
7 -17 34 -3 34 6 0 10 -5 10 -11 0 -16 20 0 30 25 7 17 9 17 9 4 1 -10 8 -18
16 -18 13 0 14 4 4 23 -6 12 -12 23 -13 24 -1 1 -8 -4 -17 -10z"/>
<path d="M5148 3939 c-16 -9 -26 -39 -14 -39 2 0 11 -3 20 -6 9 -3 16 -1 16 6
0 6 -4 9 -9 5 -5 -3 -12 -1 -16 5 -3 5 0 10 8 10 7 0 14 7 14 15 0 8 -1 15 -1
15 -1 0 -9 -5 -18 -11z"/>
<path d="M5190 3929 c0 -5 5 -7 10 -4 6 3 10 8 10 11 0 2 -4 4 -10 4 -5 0 -10
-5 -10 -11z"/>
<path d="M5356 3914 c-4 -11 -2 -15 8 -11 8 3 17 1 20 -6 3 -8 5 -8 5 -1 1 6
-5 17 -13 23 -11 9 -15 8 -20 -5z"/>
<path d="M5105 3884 c4 -23 3 -34 -4 -30 -5 3 -17 -1 -25 -10 -17 -16 -17 -67
-2 -93 11 -18 -3 -28 -15 -11 -8 11 -9 10 -4 -7 4 -14 2 -23 -4 -23 -6 0 -11
9 -11 19 0 11 -4 21 -9 23 -5 2 -11 10 -13 18 -4 21 -22 39 -32 33 -4 -3 -2
-9 5 -14 12 -7 11 -9 -1 -10 -8 0 -23 -2 -33 -4 -10 -2 -21 3 -24 11 -3 8 -10
14 -15 14 -6 0 -6 -6 1 -14 7 -8 8 -16 4 -18 -4 -3 -2 -3 5 -2 13 4 17 -12 5
-19 -5 -2 -2 -2 6 0 8 2 11 -2 7 -12 -4 -10 -2 -14 5 -9 7 4 10 1 7 -7 -3 -8
-14 -14 -25 -14 -12 0 -24 -2 -26 -5 -3 -3 10 -6 29 -6 28 0 34 3 34 21 0 11
-5 26 -11 32 -7 7 -6 12 4 16 10 4 17 -3 21 -24 3 -16 10 -29 15 -29 10 0 7
29 -4 53 -4 6 0 3 9 -7 8 -10 13 -23 10 -28 -3 -4 2 -11 10 -14 9 -3 16 -11
16 -16 0 -6 -7 -8 -15 -5 -8 4 -17 2 -20 -4 -4 -5 -11 -7 -16 -4 -5 4 -9 -1
-9 -10 0 -10 4 -13 13 -8 18 11 37 12 37 2 0 -5 -5 -9 -10 -9 -6 0 -5 -8 2
-20 7 -11 17 -20 22 -20 4 0 3 7 -4 14 -8 11 -9 20 -1 33 11 17 11 17 9 -2 -2
-14 4 -21 20 -23 17 -3 22 2 22 18 0 12 -4 18 -10 15 -6 -4 -8 -11 -5 -16 4
-5 1 -9 -4 -9 -14 0 -14 27 -1 35 5 3 7 12 3 20 -3 9 1 15 11 15 9 0 16 7 16
16 0 8 4 13 9 10 14 -9 10 47 -5 71 -17 27 -18 41 -2 25 9 -9 14 -7 24 6 9 11
13 13 14 4 0 -7 5 -10 10 -7 16 10 11 21 -15 33 -16 7 -23 17 -19 27 4 8 1 15
-6 15 -9 0 -10 -11 -5 -36z m-8 -81 c11 -31 7 -53 -9 -53 -5 0 -6 9 -3 20 3
11 3 20 -2 20 -5 0 -9 9 -10 20 -2 29 14 24 24 -7z"/>
<path d="M5217 3903 c-2 -10 -8 -26 -12 -35 -4 -10 -3 -18 3 -18 6 0 13 14 17
31 7 33 1 51 -8 22z"/>
<path d="M5257 3913 c-3 -3 1 -12 9 -20 11 -11 12 -18 4 -29 -8 -9 -8 -19 -2
-30 7 -12 6 -25 -1 -38 -32 -65 -32 -62 -13 -69 10 -4 13 -1 10 7 -3 8 -1 17
5 21 17 10 13 -41 -4 -55 -8 -7 -15 -18 -15 -24 0 -6 12 2 26 18 14 16 23 35
20 43 -3 7 1 16 9 20 9 3 20 14 26 25 9 17 8 18 -10 6 -12 -7 -21 -16 -21 -20
0 -5 -4 -8 -10 -8 -5 0 -10 7 -10 16 0 8 4 13 9 10 4 -3 16 3 26 14 10 11 13
20 7 20 -6 0 -12 -6 -15 -12 -2 -7 -8 -10 -12 -6 -4 4 0 17 9 30 9 12 16 28
16 35 0 22 -16 14 -28 -14 l-12 -28 5 33 c5 32 -15 69 -28 55z"/>
<path d="M5300 3909 c0 -5 9 -9 20 -9 11 0 20 2 20 4 0 2 -9 6 -20 9 -11 3
-20 1 -20 -4z"/>
<path d="M5000 3890 c0 -6 7 -13 15 -16 8 -3 17 -14 20 -25 8 -25 21 -24 28 2
4 14 2 19 -8 16 -7 -3 -22 3 -34 14 -12 11 -21 15 -21 9z"/>
<path d="M5517 3886 c-4 -10 -1 -13 8 -9 8 3 12 9 9 14 -7 12 -11 11 -17 -5z"/>
<path d="M5075 3880 c3 -5 8 -10 11 -10 2 0 4 5 4 10 0 6 -5 10 -11 10 -5 0
-7 -4 -4 -10z"/>
<path d="M5176 3868 c-9 -13 -12 -27 -7 -37 5 -9 10 -22 12 -29 3 -10 12 -8
32 8 31 24 47 22 23 -3 -9 -9 -13 -24 -10 -34 5 -17 5 -17 -9 -1 -16 20 -27
14 -27 -15 0 -16 3 -17 15 -7 10 9 15 9 15 1 0 -6 -4 -11 -9 -11 -16 0 -20
-40 -5 -54 11 -12 11 -16 -3 -28 -14 -11 -16 -11 -11 4 4 9 4 19 0 22 -3 4 -7
25 -8 47 -2 46 -15 65 -38 56 -18 -7 -22 -27 -6 -27 6 0 10 5 10 12 0 16 13 1
18 -20 4 -18 8 -51 10 -89 2 -22 32 -34 32 -13 0 6 6 10 14 10 16 0 29 52 14
61 -12 8 0 71 16 81 8 6 8 12 0 26 -8 13 -9 24 -2 36 8 14 7 17 -2 14 -6 -2
-11 -7 -10 -12 2 -13 -28 -28 -40 -21 -6 4 -8 15 -5 26 8 25 0 24 -19 -3z m21
-33 c8 -9 13 -18 11 -21 -3 -2 -13 5 -23 16 -21 23 -11 27 12 5z m33 -136 c0
-5 -4 -9 -10 -9 -5 0 -10 7 -10 16 0 8 5 12 10 9 6 -3 10 -10 10 -16z"/>
<path d="M4831 3871 c-23 -15 3 -19 34 -5 29 13 29 13 5 13 -14 1 -31 -3 -39
-8z"/>
<path d="M5476 3852 c5 -19 2 -23 -12 -20 -11 2 -20 -4 -22 -14 -2 -10 1 -18
7 -18 6 0 7 8 4 18 -5 13 -4 15 8 6 11 -8 18 -6 32 8 13 14 14 18 3 18 -8 0
-17 6 -20 13 -3 6 -3 2 0 -11z"/>
<path d="M5010 3841 c0 -22 13 -39 26 -34 8 3 11 9 8 14 -3 5 -10 7 -15 4 -5
-3 -6 1 -3 9 3 9 1 16 -5 16 -6 0 -11 -4 -11 -9z"/>
<path d="M5327 3844 c-6 -6 16 -34 26 -34 3 0 8 7 11 16 4 9 2 13 -5 8 -6 -4
-14 -1 -18 5 -4 6 -10 8 -14 5z"/>
<path d="M4893 3825 c0 -8 4 -12 9 -9 5 3 6 10 3 15 -9 13 -12 11 -12 -6z"/>
<path d="M4980 3830 c0 -5 5 -10 10 -10 6 0 10 5 10 10 0 6 -4 10 -10 10 -5 0
-10 -4 -10 -10z"/>
<path d="M5125 3827 c-4 -10 -5 -21 -1 -24 10 -10 18 4 13 24 -4 17 -4 17 -12
0z"/>
<path d="M4926 3821 c-3 -4 6 -6 19 -3 14 2 25 6 25 8 0 8 -39 4 -44 -5z"/>
<path d="M5151 3814 c0 -11 3 -14 6 -6 3 7 2 16 -1 19 -3 4 -6 -2 -5 -13z"/>
<path d="M4950 3800 c0 -5 5 -10 11 -10 5 0 7 5 4 10 -3 6 -8 10 -11 10 -2 0
-4 -4 -4 -10z"/>
<path d="M4891 3784 c0 -11 3 -14 6 -6 3 7 2 16 -1 19 -3 4 -6 -2 -5 -13z"/>
<path d="M5040 3779 c0 -11 4 -18 10 -14 5 3 7 12 3 20 -7 21 -13 19 -13 -6z"/>
<path d="M5140 3743 c0 -5 5 -15 10 -23 8 -12 10 -11 10 8 0 12 -4 22 -10 22
-5 0 -10 -3 -10 -7z"/>
<path d="M4875 3730 c-3 -5 -2 -17 3 -26 8 -15 10 -15 15 0 5 12 3 15 -5 10
-8 -5 -9 -2 -5 9 7 19 2 23 -8 7z"/>
<path d="M5106 3714 c-8 -21 -8 -39 1 -30 8 7 15 46 9 46 -2 0 -7 -7 -10 -16z"/>
<path d="M5135 3683 c0 -22 -4 -27 -19 -25 -11 2 -15 -1 -11 -8 4 -6 13 -9 21
-6 8 3 18 -2 21 -11 5 -13 8 -12 15 7 6 16 4 30 -7 46 -20 30 -21 30 -20 -3z"/>
<path d="M4896 3666 c6 -15 4 -17 -6 -11 -9 6 -11 4 -5 -4 5 -9 10 -10 18 -2
8 8 7 14 -2 24 -10 10 -11 8 -5 -7z"/>
<path d="M4961 3664 c0 -11 3 -14 6 -6 3 7 2 16 -1 19 -3 4 -6 -2 -5 -13z"/>
<path d="M5006 3615 c-3 -9 0 -15 9 -15 9 0 12 6 9 15 -4 8 -7 15 -9 15 -2 0
-5 -7 -9 -15z"/>
<path d="M5056 3613 c-6 -14 -5 -15 5 -6 7 7 10 15 7 18 -3 3 -9 -2 -12 -12z"/>
<path d="M4808 3583 c6 -2 18 -2 25 0 6 3 1 5 -13 5 -14 0 -19 -2 -12 -5z"/>
<path d="M5777 4293 c-4 -3 -7 -11 -7 -17 0 -6 5 -5 12 2 6 6 9 14 7 17 -3 3
-9 2 -12 -2z"/>
<path d="M6990 5904 c-87 -67 -100 -82 -100 -117 0 -18 6 -41 13 -51 11 -16
18 -13 75 33 73 58 98 70 31 14 -49 -41 -356 -338 -377 -365 -7 -10 -17 -18
-22 -18 -14 0 -180 154 -201 187 -13 19 -18 44 -17 76 1 56 -21 86 -83 110
-38 15 -40 15 -71 -11 -43 -37 -88 -110 -88 -144 0 -36 28 -78 117 -177 38
-42 97 -110 131 -152 100 -122 179 -174 246 -162 28 6 199 163 368 339 35 36
86 82 113 102 66 47 153 130 171 164 17 32 8 62 -28 95 -39 37 -181 113 -208
112 -14 0 -45 -16 -70 -35z"/>
</g>
</svg>
